<svg width="32" height="32" viewBox="0 0 32 32" fill="none" xmlns="http://www.w3.org/2000/svg">
<path fill-rule="evenodd" clip-rule="evenodd" d="M15.9489 0.09375C18.8335 0.126667 21.4394 0.835611 23.7667 2.22058C26.0663 3.5779 27.9791 5.50247 29.3224 7.81024C30.6989 10.1516 31.4036 12.7733 31.4364 15.6754C31.3547 19.6463 30.1022 23.0377 27.6791 25.8499C25.256 28.662 22.1526 30.4017 18.9399 31.0687V19.9357H21.9772L22.6641 15.5607H18.0649V12.6952C18.0394 12.1011 18.2272 11.5176 18.5945 11.05C18.9623 10.5811 19.61 10.3347 20.5376 10.3107H23.3149V6.47829C23.2751 6.46547 22.8969 6.41477 22.1805 6.32619C21.3681 6.23113 20.551 6.18036 19.733 6.17409C17.8817 6.18264 16.4175 6.70487 15.3405 7.74081C14.2634 8.77645 13.7133 10.2748 13.6899 12.2359V15.5607H10.1899V19.9357H13.6899V31.0687C9.74526 30.4017 6.64181 28.662 4.21869 25.8499C1.79556 23.0377 0.543188 19.6462 0.461426 15.6754C0.494138 12.7731 1.1988 10.1514 2.5754 7.81024C3.9187 5.50247 5.83158 3.57791 8.13113 2.22058C10.4584 0.835877 13.0643 0.126933 15.9489 0.09375V0.09375Z" fill="white"/>
</svg>
