<svg width="32" height="33" viewBox="0 0 32 33" fill="none" xmlns="http://www.w3.org/2000/svg">
<path d="M16.3149 32.6083C16.209 32.6083 16.103 32.6083 15.9963 32.6078C13.488 32.6139 11.1704 32.5502 8.9165 32.413C6.8501 32.2873 4.96387 31.5731 3.46143 30.3481C2.01172 29.1659 1.02173 27.5675 0.519043 25.5978C0.081543 23.883 0.0583496 22.1996 0.0361328 20.5714C0.0200195 19.4032 0.00341797 18.019 0 16.6112C0.00341797 15.1977 0.0200195 13.8134 0.0361328 12.6452C0.0583496 11.0172 0.081543 9.33389 0.519043 7.61881C1.02173 5.64908 2.01172 4.05069 3.46143 2.86856C4.96387 1.64346 6.8501 0.929354 8.91675 0.803621C11.1707 0.666658 13.4888 0.602693 16.0024 0.608797C18.5115 0.603426 20.8284 0.666658 23.0823 0.803621C25.1487 0.929354 27.0349 1.64346 28.5373 2.86856C29.9873 4.05069 30.977 5.64908 31.4797 7.61881C31.9172 9.33365 31.9404 11.0172 31.9626 12.6452C31.9788 13.8134 31.9956 15.1977 31.9988 16.6054V16.6112C31.9956 18.019 31.9788 19.4032 31.9626 20.5714C31.9404 22.1994 31.9175 23.8827 31.4797 25.5978C30.977 27.5675 29.9873 29.1659 28.5373 30.3481C27.0349 31.5731 25.1487 32.2873 23.0823 32.413C20.9238 32.5443 18.7065 32.6083 16.3149 32.6083V32.6083ZM15.9963 30.1078C18.4639 30.1137 20.7295 30.0514 22.9304 29.9176C24.4929 29.8227 25.8477 29.3156 26.9575 28.4106C27.9834 27.5739 28.6899 26.4196 29.0574 24.9796C29.4216 23.5522 29.4426 22.0194 29.4629 20.5373C29.4788 19.3769 29.4954 18.0023 29.4988 16.6083C29.4954 15.214 29.4788 13.8398 29.4629 12.6794C29.4426 11.1972 29.4216 9.66446 29.0574 8.23673C28.6899 6.79678 27.9834 5.64249 26.9575 4.80582C25.8477 3.90103 24.4929 3.39395 22.9304 3.29898C20.7295 3.16495 18.4639 3.10318 16.0022 3.10855C13.5352 3.10269 11.2693 3.16495 9.06836 3.29898C7.50586 3.39395 6.15112 3.90103 5.04126 4.80582C4.01538 5.64249 3.30884 6.79678 2.94141 8.23673C2.57715 9.66446 2.55615 11.1969 2.53589 12.6794C2.52002 13.8407 2.50342 15.216 2.5 16.6112C2.50342 18.0004 2.52002 19.3759 2.53589 20.5373C2.55615 22.0194 2.57715 23.5522 2.94141 24.9796C3.30884 26.4196 4.01538 27.5739 5.04126 28.4106C6.15112 29.3153 7.50586 29.8224 9.06836 29.9174C11.2693 30.0514 13.5356 30.1139 15.9963 30.1078V30.1078ZM15.9368 24.4208C11.6291 24.4208 8.12427 20.9162 8.12427 16.6083C8.12427 12.3004 11.6291 8.79581 15.9368 8.79581C20.2446 8.79581 23.7493 12.3004 23.7493 16.6083C23.7493 20.9162 20.2446 24.4208 15.9368 24.4208V24.4208ZM15.9368 11.2958C13.0076 11.2958 10.6243 13.6791 10.6243 16.6083C10.6243 19.5375 13.0076 21.9208 15.9368 21.9208C18.8662 21.9208 21.2493 19.5375 21.2493 16.6083C21.2493 13.6791 18.8662 11.2958 15.9368 11.2958V11.2958ZM24.6243 6.29581C23.5889 6.29581 22.7493 7.13516 22.7493 8.17081C22.7493 9.20645 23.5889 10.0458 24.6243 10.0458C25.6599 10.0458 26.4993 9.20645 26.4993 8.17081C26.4993 7.13516 25.6599 6.29581 24.6243 6.29581Z" fill="white"/>
</svg>
