<svg width="18" height="24" viewBox="0 0 18 24" fill="none" xmlns="http://www.w3.org/2000/svg">
<path d="M0.5625 8.4375C0.5625 12.6054 3.74442 17.1274 6.55209 21.0351C7.2195 21.9634 7.85878 22.8526 8.41495 23.6869C8.54541 23.8826 8.76516 24 8.99995 24C9.23475 24 9.4545 23.8826 9.58495 23.6869C10.1411 22.8526 10.7804 21.9634 11.4478 21.0351C14.2556 17.1274 17.4375 12.6054 17.4375 8.4375C17.4375 3.78478 13.6527 0 9 0C4.34728 0 0.5625 3.78478 0.5625 8.4375ZM13.2188 8.4375C13.2188 10.7639 11.3264 12.6562 9 12.6562C6.67364 12.6562 4.78125 10.7639 4.78125 8.4375C4.78125 6.11114 6.67364 4.21875 9 4.21875C11.3264 4.21875 13.2188 6.11114 13.2188 8.4375Z" fill="white"/>
</svg>
