<svg width="56" height="64" viewBox="0 0 56 64" fill="none" xmlns="http://www.w3.org/2000/svg">
<path d="M19.7512 46.0134L27.8422 53.9896L35.9333 46.0134L27.8422 38.0371L19.7512 46.0134ZM27.8422 7.30364V7.31563C25.5264 7.31563 23.2106 8.18722 21.4464 9.9264L21.4383 9.9184C19.6781 11.6576 18.794 13.9445 18.794 16.2314C18.794 18.5223 19.6741 20.8053 21.4302 22.5365H21.4424L27.8422 28.8415L34.238 22.5365H34.2502C36.0185 20.7933 36.9026 18.5104 36.9026 16.2314H36.8904C36.8904 13.9485 36.0063 11.6656 34.2421 9.9264C32.4657 8.17922 30.1499 7.30364 27.8422 7.30364ZM40.5973 50.6112L30.1742 60.8864L27.8422 63.1853L25.5102 60.8864L15.0871 50.6112L4.66403 60.8864L0 56.2885L23.1823 33.4393L16.7864 27.1343L16.7946 27.1263C13.7325 24.1117 12.2035 20.1656 12.2035 16.2314C12.2035 12.2933 13.7325 8.35114 16.7864 5.34056V5.33257C19.8404 2.32199 23.8433 0.814697 27.8422 0.814697V0.826692C31.8492 0.826692 35.8562 2.32998 38.9021 5.33257C41.956 8.34315 43.4809 12.2893 43.4809 16.2354H43.4688C43.4688 20.1776 41.9438 24.1197 38.8939 27.1303L38.9021 27.1383L32.5063 33.4393L55.6845 56.2885L51.0204 60.8864L40.5973 50.6112Z" fill="white"/>
</svg>
