<svg width="33" height="33" viewBox="0 0 33 33" fill="none" xmlns="http://www.w3.org/2000/svg">
<path d="M32.0002 17.0889C32.2402 7.92885 24.8802 0.488853 15.7602 0.608853C7.00018 0.728853 -0.0798169 7.96885 0.000183068 16.7289C0.0401831 23.0089 3.72018 28.4089 9.00018 31.0089C9.32018 31.1689 9.68018 30.9289 9.64018 30.5689C9.60018 29.5289 9.64018 28.4489 9.84018 27.5689C10.0402 26.6889 10.8402 23.3289 11.3602 21.1289C11.6002 20.0489 11.6402 18.9289 11.4402 17.8489C11.3602 17.4889 11.3202 17.0889 11.3202 16.6089C11.3202 14.2489 12.6802 12.4889 14.4002 12.4889C15.8402 12.4889 16.5602 13.5689 16.5602 14.8889C16.5602 16.3289 15.6402 18.5289 15.1602 20.5689C14.7602 22.2489 16.0002 23.6489 17.6802 23.6489C20.7202 23.6489 23.0402 20.4489 23.0402 15.8489C23.0402 11.7689 20.1202 8.92885 15.9202 8.92885C11.0802 8.92885 8.24018 12.5689 8.24018 16.3289C8.24018 17.8089 8.80018 19.3689 9.52018 20.2089C9.64018 20.3689 9.68018 20.5289 9.64018 20.6889C9.52018 21.2089 9.24018 22.3689 9.16018 22.6089C9.08018 22.9289 8.92018 22.9689 8.60018 22.8489C6.48018 21.8089 5.12018 18.6889 5.12018 16.2089C5.12018 10.8489 9.00018 5.92885 16.3602 5.92885C22.2402 5.92885 26.8402 10.1289 26.8402 15.7689C26.8402 21.6489 23.1602 26.3289 18.0002 26.3289C16.6402 26.3289 15.3602 25.7689 14.6002 25.0089C14.3602 24.7689 13.9602 24.8889 13.8802 25.2089C13.6002 26.2089 13.2002 27.8889 13.0402 28.4089C12.8002 29.3689 12.2802 30.4889 11.7202 31.4889C11.5602 31.7289 11.7202 32.0889 12.0002 32.1289C13.3202 32.4489 14.6802 32.6489 16.0802 32.6089C24.5602 32.5289 31.7602 25.4889 32.0002 17.0889V17.0889Z" fill="white"/>
</svg>
