<svg width="256" height="48" viewBox="0 0 256 48" fill="none" xmlns="http://www.w3.org/2000/svg">
<path d="M18.8227 9.36463V46.0977H11.9033V9.36463H0.593964V3.48501H30.074V9.36463H18.8227Z" fill="white"/>
<path d="M36.2665 22.8994C36.9449 21.0753 37.8364 19.7267 38.9412 18.8535C40.0654 17.9803 41.4512 17.5437 43.0986 17.5437C43.9902 17.5437 44.8624 17.6504 45.7152 17.8639C46.5874 18.0773 47.4402 18.3878 48.2736 18.7953L46.0059 24.151C45.4632 23.7629 44.8721 23.4815 44.2325 23.3069C43.6123 23.1128 42.9145 23.0158 42.1392 23.0158C40.046 23.0158 38.5439 23.8599 37.6329 25.5481C36.722 27.2169 36.2665 30.0306 36.2665 33.9891V46.0977H29.9577V18.446H36.2665V22.8994Z" fill="white"/>
<path d="M77.8118 46.0977H71.5029V42.5175C70.3788 44.1087 69.0608 45.2924 67.549 46.0685C66.0566 46.8447 64.3413 47.2328 62.4031 47.2328C58.5073 47.2328 55.4353 45.9036 53.187 43.2452C50.958 40.5673 49.8436 36.9095 49.8436 32.2718C49.8436 27.867 50.9871 24.3159 53.2742 21.6187C55.5613 18.902 58.5461 17.5437 62.2287 17.5437C64.477 17.5437 66.3958 18.0191 67.9851 18.9699C69.5938 19.9014 70.7664 21.25 71.5029 23.0158V18.5042H77.8118V46.0977ZM71.6774 32.2136C71.6774 29.3611 71.0087 27.1393 69.6713 25.5481C68.3534 23.9569 66.5024 23.1613 64.1184 23.1613C61.7344 23.1613 59.8544 23.986 58.4782 25.6354C57.1215 27.2654 56.4431 29.5358 56.4431 32.4465C56.4431 35.3766 57.1021 37.6372 58.4201 39.2284C59.7381 40.8196 61.5987 41.6152 64.0021 41.6152C66.2698 41.6152 68.1111 40.7517 69.526 39.0247C70.9602 37.2976 71.6774 35.0273 71.6774 32.2136Z" fill="white"/>
<path d="M96.215 47.7568L81.7657 18.5042H88.656L94.6741 32.3883C94.8679 32.8152 95.1005 33.4555 95.3718 34.3093C95.6432 35.1631 95.9242 36.1819 96.215 37.3656C96.4088 36.5312 96.6317 35.7065 96.8836 34.8915C97.155 34.0571 97.4748 33.2227 97.843 32.3883L103.832 18.5042H110.693L96.215 47.7568Z" fill="white"/>
<path d="M141.22 33.2324H119.183C119.338 35.8132 120.103 37.8313 121.479 39.2866C122.855 40.7226 124.687 41.4405 126.974 41.4405C129.009 41.4405 130.705 41.0136 132.062 40.1598C133.419 39.306 134.601 37.9283 135.609 36.0266L140.929 38.9955C139.379 41.7704 137.46 43.837 135.173 45.1953C132.886 46.5537 130.201 47.2328 127.12 47.2328C122.7 47.2328 119.183 45.8842 116.566 43.187C113.949 40.4897 112.641 36.8901 112.641 32.3883C112.641 28.061 113.988 24.51 116.682 21.7351C119.396 18.9408 122.875 17.5437 127.12 17.5437C131.558 17.5437 135.018 18.8147 137.499 21.3567C139.979 23.8987 141.22 27.4595 141.22 32.039V33.2324ZM134.678 28.9827C134.427 27.0035 133.671 25.4996 132.411 24.4712C131.151 23.4233 129.426 22.8994 127.236 22.8994C125.162 22.8994 123.495 23.4039 122.235 24.4129C120.975 25.422 120.094 26.9452 119.59 28.9827H134.678Z" fill="white"/>
<path d="M148.11 46.0977V0.981812H154.419V46.0977H148.11Z" fill="white"/>
<path d="M163.751 46.0977V0.981812H170.06V46.0977H163.751Z" fill="white"/>
<path d="M178.55 6.57035C178.55 5.5031 178.937 4.58138 179.713 3.80519C180.507 3.029 181.447 2.64091 182.533 2.64091C183.657 2.64091 184.587 3.0193 185.324 3.77608C186.08 4.51346 186.457 5.44488 186.457 6.57035C186.457 7.69583 186.08 8.64665 185.324 9.42284C184.568 10.1796 183.637 10.558 182.533 10.558C181.447 10.558 180.507 10.1699 179.713 9.39373C178.937 8.59814 178.55 7.65702 178.55 6.57035ZM179.393 46.0977V18.5042H185.702V46.0977H179.393Z" fill="white"/>
<path d="M220.676 46.0977H214.368V42.5175C213.243 44.1087 211.925 45.2924 210.414 46.0685C208.921 46.8447 207.206 47.2328 205.268 47.2328C201.372 47.2328 198.3 45.9036 196.052 43.2452C193.823 40.5673 192.708 36.9095 192.708 32.2718C192.708 27.867 193.852 24.3159 196.139 21.6187C198.426 18.902 201.411 17.5437 205.093 17.5437C207.342 17.5437 209.26 18.0191 210.85 18.9699C212.458 19.9014 213.631 21.25 214.368 23.0158V18.5042H220.676V46.0977ZM214.542 32.2136C214.542 29.3611 213.873 27.1393 212.536 25.5481C211.218 23.9569 209.367 23.1613 206.983 23.1613C204.599 23.1613 202.719 23.986 201.343 25.6354C199.986 27.2654 199.308 29.5358 199.308 32.4465C199.308 35.3766 199.967 37.6372 201.285 39.2284C202.603 40.8196 204.463 41.6152 206.867 41.6152C209.134 41.6152 210.976 40.7517 212.391 39.0247C213.825 37.2976 214.542 35.0273 214.542 32.2136Z" fill="white"/>
<path d="M229.398 46.0977V18.5042H235.329V23.0158C236.589 21.1141 238.072 19.7267 239.777 18.8535C241.483 17.9803 243.557 17.5437 245.999 17.5437C248.053 17.5437 249.798 17.8736 251.232 18.5333C252.686 19.1737 253.82 20.1342 254.634 21.4149C255.118 22.1717 255.467 23.0546 255.68 24.0637C255.893 25.0727 256 26.8385 256 29.3611V46.0977H249.633V31.9225C249.633 28.2939 249.187 25.8877 248.296 24.704C247.423 23.5009 245.863 22.8994 243.615 22.8994C242.142 22.8994 240.824 23.171 239.661 23.7144C238.517 24.2577 237.616 25.0242 236.957 26.0138C236.492 26.6736 236.163 27.5274 235.969 28.5752C235.794 29.6037 235.707 31.2531 235.707 33.5234V46.0977H229.398Z" fill="white"/>
</svg>
