<svg width="26" height="22" viewBox="0 0 26 22" fill="none" xmlns="http://www.w3.org/2000/svg">
<path d="M25.768 2.67201C24.808 3.08801 23.816 3.37601 22.76 3.50401C23.848 2.86401 24.68 1.84001 25.064 0.592008C24.04 1.20001 22.92 1.61601 21.736 1.87201C20.776 0.848008 19.4 0.208008 17.896 0.208008C14.984 0.208008 12.648 2.57601 12.648 5.45601C12.648 5.87201 12.68 6.25601 12.776 6.64001C8.42397 6.44801 4.58397 4.33601 1.99197 1.16801C0.135969 4.49601 2.21597 7.24801 3.59197 8.17601C2.75997 8.17601 1.92797 7.92001 1.22397 7.53601C1.22397 10.128 3.04797 12.272 5.41597 12.752C4.90397 12.912 3.75197 13.008 3.04797 12.848C3.71997 14.928 5.67197 16.464 7.94397 16.496C6.15197 17.904 3.52797 19.024 0.167969 18.672C2.50397 20.176 5.25597 21.04 8.23197 21.04C17.896 21.04 23.144 13.04 23.144 6.12801C23.144 5.90401 23.144 5.68001 23.112 5.45601C24.2 4.65601 25.096 3.72801 25.768 2.67201Z" fill="white"/>
</svg>
