<svg width="25" height="28" viewBox="0 0 25 28" fill="none" xmlns="http://www.w3.org/2000/svg">
<path d="M8.64111 20.1308L12.181 23.6205L15.7208 20.1308L12.181 16.6413L8.64111 20.1308ZM12.181 3.19536V3.2006C11.1678 3.2006 10.1547 3.58192 9.38281 4.34281L9.37928 4.33932C8.60916 5.10021 8.22237 6.10073 8.22237 7.10127C8.22237 8.10353 8.60743 9.10232 9.37569 9.85969H9.38102L12.181 12.6182L14.9792 9.85969H14.9845C15.7581 9.09705 16.1449 8.09827 16.1449 7.10127H16.1395C16.1395 6.10249 15.7528 5.10371 14.9809 4.34281C14.2037 3.57842 13.1906 3.19536 12.181 3.19536ZM17.7613 22.1424L13.2012 26.6378L12.181 27.6436L11.1607 26.6378L6.60064 22.1424L2.04051 26.6378L0 24.6262L10.1422 14.6297L7.34408 11.8713L7.34761 11.8678C6.00797 10.5489 5.33904 8.82244 5.33904 7.10127C5.33904 5.37833 6.00797 3.65364 7.34408 2.33651V2.33301C8.68018 1.01589 10.4314 0.356445 12.181 0.356445V0.361693C13.9341 0.361693 15.6871 1.01938 17.0196 2.33301C18.3557 3.65014 19.0229 5.37658 19.0229 7.10301H19.0176C19.0176 8.8277 18.3504 10.5524 17.0161 11.8695L17.0196 11.873L14.2215 14.6297L24.362 24.6262L22.3214 26.6378L17.7613 22.1424Z" fill="white"/>
</svg>
